<?xml version="1.0" standalone="no"?>
<!DOCTYPE svg PUBLIC "-//W3C//DTD SVG 20010904//EN"
 "http://www.w3.org/TR/2001/REC-SVG-20010904/DTD/svg10.dtd">
<svg version="1.0" xmlns="http://www.w3.org/2000/svg"
 width="700.000000pt" height="700.000000pt" viewBox="0 0 700.000000 700.000000"
 preserveAspectRatio="xMidYMid meet">
<metadata>
Created by potrace 1.15, written by Peter Selinger 2001-2017
</metadata>
<g transform="translate(0.000000,700.000000) scale(0.100000,-0.100000)"
fill="#000000" stroke="none">
<path d="M0 3500 l0 -3500 3500 0 3500 0 0 3500 0 3500 -3500 0 -3500 0 0
-3500z m1070 2769 c60 -27 98 -64 126 -124 l24 -50 0 -740 0 -740 383 383 382
382 382 -382 382 -382 0 741 c0 819 -3 775 65 851 130 143 369 93 432 -90 12
-38 14 -192 12 -1118 -3 -1026 -4 -1077 -22 -1110 -26 -49 -74 -98 -121 -123
-57 -30 -163 -30 -225 0 -32 16 -173 151 -475 453 l-430 430 -430 -429 c-287
-286 -445 -437 -475 -452 -62 -32 -167 -33 -226 -2 -54 29 -117 101 -132 151
-9 29 -12 317 -12 1108 0 1013 1 1071 19 1109 60 132 213 192 341 134z m5072
9 c52 -15 121 -78 148 -134 27 -54 29 -151 6 -206 -24 -56 -75 -108 -131 -134
l-50 -24 -1075 0 -1075 0 -50 24 c-133 61 -189 220 -125 346 22 43 89 106 134
126 42 18 2156 21 2218 2z m13 -1021 c139 -62 197 -222 129 -354 -33 -64 -93
-116 -152 -133 -24 -6 -399 -10 -1102 -10 l-1065 0 -51 24 c-88 41 -155 146
-154 240 1 70 54 163 115 205 75 51 56 50 1185 48 992 -2 1057 -3 1095 -20z
m11 -1024 c94 -50 144 -130 145 -233 2 -116 -78 -222 -188 -249 -28 -8 -384
-11 -1086 -11 -1186 0 -1113 -5 -1197 80 -49 48 -80 119 -80 179 0 76 54 173
116 212 82 50 37 48 1179 46 l1070 -2 41 -22z m-3056 -1017 c49 -26 98 -74
123 -121 l22 -40 3 -1075 c3 -1180 5 -1120 -58 -1200 -17 -21 -54 -50 -82 -64
l-52 -26 -1081 0 -1081 0 -52 26 c-57 28 -96 69 -123 129 -18 38 -19 96 -19
1109 0 791 3 1079 12 1108 21 70 100 145 178 169 14 4 509 7 1100 6 1027 -2
1077 -3 1110 -21z m3013 13 c147 -37 232 -214 168 -352 -13 -30 -146 -168
-455 -477 l-436 -435 439 -440 c318 -318 444 -451 456 -480 24 -59 22 -154 -5
-209 -27 -56 -96 -119 -148 -134 -29 -9 -319 -12 -1111 -12 -1191 0 -1109 -5
-1184 68 -77 74 -101 159 -73 256 21 70 73 131 141 162 l50 24 733 0 c402 0
732 1 732 3 0 1 -170 172 -377 380 l-378 377 378 377 c207 208 377 380 377
383 0 3 -322 4 -716 2 -467 -1 -729 1 -754 8 -62 17 -130 70 -162 126 -59 106
-44 219 41 304 84 84 1 78 1189 79 710 1 1067 -2 1095 -10z"/>
<path d="M1220 1960 l0 -760 760 0 760 0 0 760 0 760 -760 0 -760 0 0 -760z"/>
</g>
</svg>
