<?xml version="1.0" encoding="UTF-8" standalone="no"?>
<!DOCTYPE svg PUBLIC "-//W3C//DTD SVG 1.1//EN" "http://www.w3.org/Graphics/SVG/1.1/DTD/svg11.dtd">
<svg width="100%" height="100%" viewBox="0 0 840 840" version="1.1" xmlns="http://www.w3.org/2000/svg" xmlns:xlink="http://www.w3.org/1999/xlink" xml:space="preserve" xmlns:serif="http://www.serif.com/" style="fill-rule:evenodd;clip-rule:evenodd;stroke-linecap:round;stroke-linejoin:round;stroke-miterlimit:1.5;">
    <g id="Layer3" transform="matrix(1.05,0,0,1.05,1.13687e-13,1.13687e-13)">
        <rect x="0" y="0" width="800" height="800" style="fill:rgb(51,102,153);"/>
    </g>
    <g id="STROKE-W" serif:id="STROKE W">
        <path d="M108,110L108,350L230.109,227.891L352.218,350L352.218,110" style="fill:none;stroke:white;stroke-width:56px;"/>
    </g>
    <g id="STROKE-E" serif:id="STROKE E">
        <g transform="matrix(0.991837,0,0,1,3.98367,0)">
            <path d="M488,110L733,110" style="fill:none;stroke:white;stroke-width:56.23px;"/>
        </g>
        <g transform="matrix(0.991837,0,0,1,3.98367,120)">
            <path d="M488,110L733,110" style="fill:none;stroke:white;stroke-width:56.23px;"/>
        </g>
        <g transform="matrix(0.991837,0,0,1,3.98367,240)">
            <path d="M488,110L733,110" style="fill:none;stroke:white;stroke-width:56.23px;"/>
        </g>
    </g>
    <g transform="matrix(-1,0,0,1,460.218,0)">
        <g id="STROKE-0" serif:id="STROKE 0">
            <rect x="108" y="488.891" width="244.218" height="243.109" style="fill:none;stroke:white;stroke-width:56px;"/>
        </g>
    </g>
    <g transform="matrix(6.12323e-17,1,1,-6.12323e-17,379.109,379.891)">
        <g id="STROKE-3" serif:id="STROKE 3">
            <path d="M108,110L108,350L230.109,227.891L352.218,350L352.218,110" style="fill:none;stroke:white;stroke-width:56px;"/>
        </g>
    </g>
</svg>
